<svg width="1017" height="1270" version="1.1" xmlns="http://www.w3.org/2000/svg" desc="Created with imagetracer.js version 1.2.6" ><path fill="rgb(0,0,0)" stroke="rgb(0,0,0)" stroke-width="1" opacity="0" d="M 0 0 L 238.5 0 L 240 1.5 L 458 441 L 803 570 Q 804.3 573 800.5 572 L 566.5 663 L 561 664 L 564 674.5 L 616.5 796 L 969.5 642 L 979 639 L 979 503.5 L 977.5 503 L 432 267 L 430 262.5 L 241 0.5 L 1017 0 L 1016.5 1116 L 1013 1100.5 Q 1007.2 1087.3 997.5 1078 Q 987.8 1068.7 973.5 1064 L 964.5 1062 L 944.5 1062 Q 918.4 1067.4 905 1085.5 L 895 1104.5 L 893 1112.5 L 892 1127.5 L 895 1143.5 L 901 1156.5 L 915.5 1173 Q 925.2 1181.2 939.5 1185 L 944.5 1186 L 964.5 1186 Q 987.1 1181.6 1000 1167.5 Q 1008.1 1159.1 1013 1147.5 L 1016.5 1132 L 1017 1270 L 740.5 1270 L 739 1268.5 L 519.5 828 L 187.5 704 L 176 698.5 L 401.5 612 L 418 604.5 L 414 592.5 L 362.5 473 L 0 631 L 0 0 Z " /><path fill="rgb(0,0,0)" stroke="rgb(0,0,0)" stroke-width="1" opacity="0" d="M 0.5 766 L 545.5 1002 L 548 1004.5 L 738 1269.5 L 0 1270 L 0.5 766 Z " /><path fill="rgb(237,28,36)" stroke="rgb(237,28,36)" stroke-width="1" opacity="0.996078431372549" d="M 944.5 1062 L 964.5 1062 L 973.5 1064 Q 989.6 1069.4 1000 1080.5 Q 1008.1 1088.9 1013 1100.5 L 1017 1116.5 L 1017 1131.5 L 1013 1147.5 Q 1007.6 1160.1 998.5 1169 Q 988.5 1179 973.5 1184 L 964.5 1186 L 944.5 1186 Q 918.4 1180.6 905 1162.5 L 895 1143.5 L 893 1135.5 L 892 1120.5 L 895 1104.5 L 901 1091.5 L 915.5 1075 Q 926.8 1065.3 944.5 1062 Z " /><path fill="rgb(255,255,255)" stroke="rgb(255,255,255)" stroke-width="1" opacity="0.9882352941176471" d="M 239.5 0 L 243 2.5 L 430 262.5 L 432 267 L 979 503.5 L 976.5 504 L 445.5 274 L 432.5 268 L 430 265.5 L 246.5 10 L 246 11.5 L 460.5 441 L 806 570.5 L 797.5 575 L 562 665 L 616 795 L 664.5 775 L 978.5 637 L 979 639 L 969.5 642 L 616.5 796 L 564 674.5 L 561 664 L 566.5 663 L 803 572 Q 804.3 569 800.5 570 L 458 441 L 239.5 0 Z " /><path fill="rgb(255,255,255)" stroke="rgb(255,255,255)" stroke-width="1" opacity="0.9882352941176471" d="M 362.5 473 L 414 592.5 L 418 604.5 L 401.5 612 L 176 698.5 L 187.5 704 L 373.5 773 L 521 829.5 L 740 1269.5 L 738.5 1270 L 545.5 1002 L 5.5 769 L 0 765.5 L 1.5 766 L 536.5 997 L 545.5 1001 L 550 1005.5 L 733.5 1261 L 734 1259.5 L 520 829 L 256.5 731 L 173 698.5 L 417 605 L 415 597.5 L 363 475 L 348.5 480 L 0.5 632 L 0.5 631 L 362.5 473 Z " /><path fill="rgb(255,255,255)" stroke="rgb(255,255,255)" stroke-width="1" opacity="1" d="M 244.5 7 L 432.5 268 L 969.5 501 L 979 504 L 979 636.5 L 977.5 638 L 625.5 792 L 616 795 L 562 665 L 797.5 575 L 806 570.5 L 473.5 446 L 459 439.5 L 262 44.5 L 244.5 7 Z " /><path fill="rgb(255,255,255)" stroke="rgb(255,255,255)" stroke-width="1" opacity="1" d="M 360.5 475 Q 363.8 473.9 363 476.5 L 415 597.5 L 417 605 L 173 698.5 L 256.5 731 L 520 829 L 736 1263.5 L 734 1262.5 L 553 1009.5 L 545.5 1001 L 19.5 774 L 0 764.5 L 0 632.5 L 1.5 632 L 360.5 475 Z " /></svg>